<svg viewBox="0 0 120 120" xmlns="http://www.w3.org/2000/svg" xmlns:xlink="http://www.w3.org/1999/xlink" width="120.000000" height="120.000000" fill="none" clip-path="url(#clipPath_2)" customFrame="url(#clipPath_2)">
	<defs>
		<linearGradient id="paint_linear_3" x1="102.426407" x2="17.5736008" y1="17.5736008" y2="102.426422" gradientUnits="userSpaceOnUse">
			<stop stop-color="rgb(16,73,205)" offset="0.05183395" stop-opacity="1" />
			<stop stop-color="rgb(59,111,232)" offset="0.57607621" stop-opacity="1" />
			<stop stop-color="rgb(109,153,240)" offset="1" stop-opacity="1" />
		</linearGradient>
		<clipPath id="clipPath_2">
			<rect width="120.000000" height="120.000000" x="0.000000" y="0.000000" rx="24.000000" fill="rgb(255,255,255)" />
		</clipPath>
		<linearGradient id="paint_linear_4" x1="75.9099045" x2="49.4193878" y1="31.5649719" y2="62.935318" gradientUnits="userSpaceOnUse">
			<stop stop-color="rgb(255,255,255)" offset="0" stop-opacity="1" />
		</linearGradient>
		<clipPath id="clipPath_3">
			<rect width="40.000000" height="24.000000" x="40.000000" y="70.000000" fill="rgb(255,255,255)" />
		</clipPath>
		<linearGradient id="paint_linear_5" x1="74.1421356" x2="59.1681137" y1="73.5147247" y2="98.4714355" gradientUnits="userSpaceOnUse">
			<stop stop-color="rgb(255,255,255)" offset="0" stop-opacity="1" />
		</linearGradient>
	</defs>
	<rect id="hireslop.xyz – Icon 120x120" width="120.000000" height="120.000000" x="0.000000" y="0.000000" rx="24.000000" fill="url(#paint_linear_3)" />
	<path id="Letter" d="M46.0079 47.0137L46.0079 59L40.2653 59L40.2653 31.3628L45.841 31.3628L45.841 41.9297L46.0822 41.9297Q46.7965 40.1021 48.3551 39.0537Q49.923 38.0054 52.2794 38.0054Q54.4503 38.0054 56.0553 38.9424Q57.6696 39.8794 58.5602 41.6235Q59.4601 43.3677 59.4508 45.7983L59.4508 59L53.7081 59L53.7081 46.8188Q53.7081 44.9077 52.734 43.8408Q51.7599 42.7739 49.9972 42.7739Q48.8375 42.7739 47.9284 43.2842Q47.0285 43.7852 46.5182 44.7314Q46.0172 45.6777 46.0079 47.0137ZM80.2256 44.1748L74.9746 44.4995Q74.8262 43.8315 74.3809 43.2842Q73.9448 42.7368 73.2212 42.4121Q72.4976 42.0874 71.4956 42.0874Q70.1597 42.0874 69.2412 42.644Q68.3228 43.2007 68.332 44.1191Q68.3228 44.8706 68.9165 45.3809Q69.5103 45.8911 70.9575 46.2065L74.7148 46.9673Q77.73 47.5796 79.2144 48.9619Q80.6987 50.335 80.6987 52.5801Q80.6987 54.6211 79.502 56.1611Q78.3145 57.6919 76.2363 58.5454Q74.1675 59.3989 71.4678 59.3989Q67.3579 59.3989 64.918 57.6826Q62.478 55.9663 62.0698 52.9976L67.7197 52.6914Q67.9795 53.9531 68.9536 54.6118Q69.937 55.2612 71.4863 55.2612Q72.9893 55.2612 73.917 54.6768Q74.8447 54.083 74.854 53.1553Q74.8447 52.376 74.1953 51.875Q73.5459 51.3647 72.1914 51.0864L68.6104 50.3721Q65.5674 49.769 64.083 48.2754Q62.6079 46.7725 62.6172 44.4438Q62.6079 42.4492 63.6934 41.0112Q64.7881 39.564 66.7642 38.7847Q68.7495 38.0054 71.3936 38.0054Q75.3271 38.0054 77.5815 39.666Q79.8452 41.3174 80.2256 44.1748Z" fill="url(#paint_linear_4)" fill-rule="nonzero" />
	<g id="Dot Row" customFrame="url(#clipPath_3)">
		<rect id="Dot Row" width="40.000000" height="24.000000" x="40.000000" y="70.000000" />
		<path id="x" d="M43.5114 89.2637Q44.1384 89.2637 44.5896 89.7207Q45.0466 90.1777 45.0466 90.7988Q45.0466 91.4258 44.5896 91.8828Q44.1384 92.334 43.5114 92.334Q42.8903 92.334 42.4333 91.8828Q41.9763 91.4258 41.9763 90.7988Q41.9763 90.1777 42.4333 89.7207Q42.8903 89.2637 43.5114 89.2637ZM50.6219 79.6426L50.6219 80.1465Q50.1708 80.1465 49.8544 80.3633Q49.5438 80.5742 49.784 80.9609L56.1942 90.2949Q56.5985 90.8984 56.909 91.1504Q57.2255 91.4023 57.6825 91.4961L57.6825 92Q57.4423 91.9766 56.9501 91.9414Q56.4579 91.9062 55.9774 91.9062Q55.2333 91.9062 54.3778 91.9414Q53.5282 91.9766 53.1415 92L53.1415 91.4961Q53.6219 91.4961 53.9325 91.2676Q54.2489 91.0391 53.9852 90.6816L47.5751 81.3418Q47.0946 80.6504 46.8075 80.4219Q46.5204 80.1934 46.0868 80.1465L46.0868 79.6426Q46.327 79.666 46.8309 79.7012Q47.3348 79.7363 47.7919 79.7363Q48.5594 79.7363 49.3973 79.7012Q50.2411 79.666 50.6219 79.6426ZM51.2723 85.7363Q51.2723 85.7363 51.3192 85.8945Q51.3661 86.0469 51.4247 86.2168Q51.4891 86.3867 51.4891 86.3867L49.4969 88.9766Q48.87 89.791 48.8348 90.3477Q48.7997 90.8984 49.2801 91.1738Q49.7606 91.4492 50.5985 91.5195L50.5985 92Q50.1942 91.9766 49.6903 91.9648Q49.1864 91.9531 48.7176 91.9414Q48.2489 91.9297 47.8622 91.9297Q47.3114 91.9297 46.8661 91.9414Q46.4266 91.9531 46.0399 92L46.0399 91.5195Q46.4969 91.4727 46.9891 91.1035Q47.4813 90.7285 48.1493 89.8379L51.2723 85.7363ZM57.202 79.6426L57.202 80.1172Q56.745 80.1699 56.2059 80.5918Q55.6669 81.0078 55.0868 81.7988L52.327 85.6133Q52.327 85.6133 52.2801 85.4609Q52.2333 85.3027 52.1805 85.1504Q52.1337 84.9922 52.1337 84.9922L54.0087 82.373Q54.536 81.6348 54.6766 81.1543Q54.8231 80.6738 54.5243 80.4219Q54.2255 80.1699 53.3583 80.1172L53.3583 79.6426Q53.9852 79.666 54.4012 79.6895Q54.8231 79.7129 55.3739 79.7129Q55.9305 79.7129 56.37 79.6895Q56.8153 79.666 57.202 79.6426ZM68.8455 79.6426L68.8455 80.1172Q68.3943 80.1699 68.0076 80.5332Q67.6268 80.8906 67.2869 81.7988L63.3494 92.1172L62.9451 92.1172L58.5272 81.4883Q58.0701 80.5508 57.6248 80.3516Q57.1854 80.1465 56.8983 80.1465L56.8983 79.6426Q57.4256 79.7129 57.9998 79.748Q58.574 79.7832 59.2479 79.7832Q59.992 79.7832 60.8182 79.7363Q61.6502 79.6895 62.3709 79.6426L62.3709 80.1465Q61.7674 80.1465 61.2986 80.2285Q60.8299 80.3105 60.7068 80.7324Q60.5897 81.1543 60.9998 82.1621L63.9529 89.4805L63.8065 89.5273L66.5428 82.373Q66.8533 81.582 66.7947 81.1191Q66.7361 80.6504 66.3026 80.4102Q65.8748 80.1699 65.0076 80.1172L65.0076 79.6426Q65.4412 79.666 65.7518 79.6777Q66.0623 79.6895 66.3611 79.7012Q66.6658 79.7129 67.0233 79.7129Q67.574 79.7129 68.0193 79.6895Q68.4647 79.666 68.8455 79.6426ZM63.3494 92.1172L62.535 94.209Q62.2947 94.8066 62.0428 95.2109Q61.7908 95.6211 61.5037 95.8906Q61.1229 96.248 60.5897 96.377Q60.0623 96.5117 59.6346 96.5117Q59.1775 96.5117 58.8025 96.3418Q58.4334 96.1777 58.2166 95.8496Q57.9998 95.5273 57.9998 95.0703Q57.9998 94.4961 58.3338 94.1445Q58.6736 93.7988 59.2713 93.7988Q59.7752 93.7988 60.1326 94.0859Q60.4959 94.373 60.4959 94.9297Q60.4959 95.334 60.3025 95.5977Q60.1092 95.8613 59.8455 96.0078Q59.8983 96.0312 59.9334 96.0312Q59.9686 96.0312 59.992 96.0312Q60.6424 96.0312 61.1463 95.5859Q61.6502 95.1465 62.0311 94.1621L62.8983 91.9297L63.3494 92.1172ZM78.6232 79.5195L71.6857 91.6426L74.3282 91.6426Q75.2892 91.6426 75.9923 91.2559Q76.7013 90.8691 77.1349 90.0195Q77.5685 89.1699 77.6622 87.7754L78.2189 87.7754Q78.2189 89.3105 78.2423 90.3711Q78.2657 91.4258 78.3126 92.0938Q77.2579 92.0469 76.1153 92.0234Q74.9786 92 73.8478 92Q72.6466 92 71.3985 92.0352Q70.1505 92.0703 69.0021 92.1172L75.9337 80L73.297 80Q72.2423 80 71.5333 80.3867Q70.8243 80.7676 70.4493 81.623Q70.0802 82.4727 69.9571 83.8613L69.4064 83.8613Q69.4064 82.3027 69.3829 81.2598Q69.3595 80.2168 69.3126 79.543Q70.3673 79.5898 71.504 79.6191Q72.6466 79.6426 73.7775 79.6426Q74.9786 79.6426 76.2267 79.6074Q77.4747 79.5664 78.6232 79.5195Z" fill="url(#paint_linear_5)" fill-rule="nonzero" />
	</g>
</svg>
